<?xml version="1.0" encoding="utf-8"?>
<!-- Generator: Adobe Illustrator 23.0.1, SVG Export Plug-In . SVG Version: 6.00 Build 0)  -->
<svg version="1.1" id="Warstwa_1" xmlns="http://www.w3.org/2000/svg" xmlns:xlink="http://www.w3.org/1999/xlink" x="0px" y="0px"
	 viewBox="0 0 1920 1080" style="enable-background:new 0 0 1920 1080;" xml:space="preserve">
<style type="text/css">
	.st0{fill:#FFFFFF;}
</style>
<g>
	<g>
		<path class="st0" d="M627.73,460.93c4.2-6.05,8.86-11.11,13.77-16.17c4.95-5.1,9.97-9.71,15.2-14.44c2.74-1.77,4.95-2.6,8.24-2.91
			c0.83-10.88-13.33-31.4-16.22-29.69c-5.78,3.4-12.25,10.67-16.98,16.39c-5.04,6.09-8.73,11.24-12.54,18.06
			c-2.02,3.61-4.28,7.89-4.56,10.52C613.85,450.15,621.88,457.68,627.73,460.93z"/>
		<path class="st0" d="M1070.69,576.12c-89.15-4.59-172.61,3.41-253.69,17.27c-39.11,6.69-76.93,13.39-116.22,22.14
			c-26.17,5.83-56.33,12.67-83.22,21.1c-8.03,2.52-23.33,6.91-24.93,10.84c-2.73,6.74,3.27,12.16,6.45,15.48
			c15.85-7.54,33.83-14.6,53.28-18.7c15.38-3.25,30.34-9.53,45.73-12c16.26-5.43,33.55-7.36,50.57-12.6
			c11.49-1.02,23.84-5.58,34.66-7.24c12.35-1.9,24.45-4.89,35.66-6.62c2.94-0.45,6.06,0.06,8.56-0.76c1.76-0.58,2.9-2.24,4.51-2.75
			c4.27-1.34,9.43-1.02,12.19,0.12c20.76-2.98,44.98-5.97,66.03-7.91c2.66-0.25,6.08,0.41,8.14-1.86c6.21,0.79,14.79,0.41,21.8-0.53
			c3.24-0.44,4.97-2.44,8.19-2.39c1.23,0.02,2.02,1.19,3.05,1.36c3.48,0.56,7.26-1.05,10.19-1.13c-1.57-0.48-4.59,0.23-5.21-1.04
			c12.72,0.41,21.2,1.23,33.42,0.06c1.3-0.18-1.75-1.29,0.68-1.53c5.44,0.78,13.96-1.59,16.34,1.06c3.41-2.6,13.3-1.67,19.07,0.26
			c2.09,0.19,2.06-2.2,4.41-1.69c2.69,1.37,5.68-0.72,6.26,1.14c3.85-2.64,12.77-0.46,17.5,0.11c3.74,0.45,6.41-0.61,10.14-0.61
			c19.37,0,48.08,3.14,65.12,6.86c2.77-2.97,2.53-9.48,1.28-13.14C1112.61,578.72,1091.11,577.17,1070.69,576.12z M920.04,592.25
			c-1.5,0.31,3.04-1.1,4.83-0.59C925.54,592.33,921.66,592.43,920.04,592.25z"/>
		<path class="st0" d="M466.98,603.9c2.25-1.54,4.32-2.98,6.2-4.31c3.43-2.41,6.79-4.86,10.03-7.35c2.19-1.67,3.32-2.59,3.32-2.59
			l0-0.01c7.04-5.59,13.42-11.3,18.66-17.01c5.5-6,10.04-12.2,13.76-18.42l0.1,0.11c3.92-6.37,7.27-13.26,9.82-20.75
			c2-5.88,3.33-11.81,4.06-17.68c1.04-6.58,1.32-12.63,1.09-17.83c-0.33-7.6-1.75-13.38-3.49-16.35
			c-5.94-10.09-19.03-42.35-78.98-48.26c22.66-49.56,42.26-90.57,42.26-90.57s-20.52,40.95-44.1,90.4c-0.56-0.05-1.11-0.1-1.68-0.15
			c-4.54-0.36-9.26-0.41-14.09-0.21c-23.54,0.22-70.03,3.48-115.81,22.98l0.01,0c-18.09,6.42-35.06,14.01-50.79,22.55
			c-16.62,9.03-33.06,17.08-49.32,27.04c-15.32,9.39-31.11,20.18-45.52,31.66c-4.28,3.41-12.15,10.18-12.52,14.17
			c-0.31,3.37,6.89,18.53,10.62,21.72c4.9,4.19,6.87,2.91,8.21,2.92c3.83,0.02,10.9-6.2,14.69-9.18
			c23.56-18.58,47.09-35.27,71.21-50.38c3.32-2.08,6.52-4.36,9.77-6.58c4.17-2.54,9.11-5.43,14.76-8.5c0.88-0.37,1.79-0.7,2.7-1.01
			c-9.32,12.61-15.72,25.67-20.06,36.97c-3.52,7.51-6.35,15.45-7.78,23.63c-2.43,13.96-0.22,24.04,12.37,25.61
			c0.06-0.08,0.12-0.16,0.18-0.23c3.74,0.24,6.81-0.68,6.81-0.68c0.38-3.36,2.31-8.05,5.1-13.32c4.9-7.71,9.57-15.48,14.45-23.07
			c8.61-12.39,16.79-22.71,16.79-22.71c0,0,0.01-0.01,0.01-0.01c1.26-1.46,2.37-2.9,2.96-4.23c6.7-11,1.56-15.97,1.56-15.97
			l-14.3-14.13c0.48-0.25,0.96-0.49,1.45-0.73l-1.07-0.72c32.14-14.85,76.75-29.75,126.16-29.65c-8.71,18.6-17,36.62-24.85,54.36
			l-1.51,0.81l-22.12,16.42c0,0-7.93,5.25-2.71,13.33c3.12,4.83,6.21,9.62,7.65,13.56c-3.42,8.62-6.28,16.33-8.4,22.8
			c-0.87,2.65-1.72,5.27-2.55,7.87c-1.61-0.02-2.5-0.01-2.5-0.01c-75.13,0.15-150.6,26.11-177.5,46.29l-0.03-0.03
			c-1.7,1.3-3.32,2.66-4.82,4.11c0,0-0.01,0-0.01,0.01c0,0,0,0,0,0c-0.3,0.29-0.58,0.57-0.86,0.86c-0.06,0.06-0.11,0.11-0.17,0.17
			c-0.23,0.24-0.46,0.47-0.68,0.71c-0.13,0.14-0.25,0.28-0.38,0.41c-0.14,0.16-0.29,0.32-0.43,0.48
			c-11.42,12.97-8.55,26.11-5.22,33.61c1.74,3.93,3.61,6.31,3.61,6.31s22.37,24.58,78.96,7.62c32.72-7.86,62.74-18.32,89.29-29.52
			c-6.05,23.11-8.94,36.92-9,37.18l0.01,0c-0.09,0.64,0.61,1.29,1.6,1.48c0.94,0.17,1.8-0.15,1.99-0.73l0.01,0
			c0-0.01,0.01-0.05,0.02-0.11l0,0v0c0.29-1.38,3.4-15.99,9.66-39.65c36.77-15.85,66.63-32.98,87.47-46.3
			c0.56,0.11,1.11,0.22,1.68,0.33c54.13,10.74,72.37,41.52,72.37,41.52C523.68,629.27,490.92,612.7,466.98,603.9z M255.19,667.05
			c0,0-41.86,12.15-52.47,6.01c-1.8-0.93-3-2.13-3.44-3.65c-0.25-0.86-0.25-1.82,0.01-2.89c0.78-1.82,1.67-3.51,2.65-5.08
			c2.36-3.17,6.26-6.99,12.03-11.59c1.72-1.37,3.61-2.82,5.67-4.33c21.69-15.96,83.59-31.94,123.56-38.31
			c13.32-2.12,24.15-3.33,34.67-3.61c-2.52,8.12-4.84,15.87-6.97,23.18C335.67,642.46,293.13,659.22,255.19,667.05z M399.19,613.74
			c-7.37,3.5-15.39,7.23-23.87,11.06c1.98-6.75,4.13-13.85,6.43-21.26c10.14-0.05,20.24,0.79,32.29,2.53
			C408.7,609.02,403.69,611.6,399.19,613.74z M433.39,594.6c-18.85-3.24-37.85-4.12-47.43-4.36c0.72-2.24,1.46-4.5,2.2-6.79
			c1.76-5.37,4.01-11.61,6.64-18.52l24.17-16.85c0,0,6.43-3.35,1.28-13.14c-3.69-7.01-6.12-12.34-6.86-15.59
			c7.94-18.63,16.8-38.66,25.64-58.31c1.81,0.02,3.63,0.06,5.45,0.12c0,0,42.38,1.02,64.6,15.83c8.72,5.82,14.35,13.76,13.08,24.6
			c-0.08,0.66-0.18,1.32-0.3,2c-2.24,11.88-10.43,24.72-21.87,37.38c-5.53,6.13-11.82,12.22-18.56,18.14
			C466.52,572.22,449.4,584.51,433.39,594.6z"/>
		<path class="st0" d="M1383.79,307.83l-12.05-25.45c0,0-3.2-5.04-9.3,1.27c-6.09,6.3-42.07,48.97-42.07,48.97
			s-35.84,46.99-56.62,88.08c-0.79,0.79-1.59,1.58-2.39,2.37l-0.42,1.16c-13.1,16.02-63.39,76.71-80.35,85.64
			c0,0-13.41,8.63-7.96-4.56s31.57-47.26,55.13-65.93c0,0-0.32-21.25-14.64-29.54c0,0-43.01,42.42-56.77,64.74
			c0,0-3.49,5.82-7.31,14.32c-0.21,0.46-0.41,0.92-0.62,1.4c-1.37-0.14-2.89-0.46-3.62,0.18c-14.32,19.82-30.42,37.48-48.61,52.58
			c3.26-19.62,12.21-32.81,21.13-46.5l29.54-41.35l0,0c1.88-2.33,3.69-4.76,5.43-7.38l1.13-4.71c-2.68-9.83-5.91-21.03-13.22-25.25
			c-22.21,19.36-44.95,40.79-65.4,61.56c-2.82,2.86-11.62,10.37-15.82,15.44c2.68-7.52,15.27-23.57,20.88-29.27
			c4.95-5.03,13.66-11.5,15.01-18c0.74-3.54-9.33-24.07-16.76-24.09c-7.94,8.73-16.73,16.51-25.2,24.61
			c-8.51,8.14-17.04,16.6-26.68,23.41c0.71-3.97-2.42-4.78-1.23-9.14c-1.02-2.22-1.24-3.98-1.94-6.47
			c-1.74-11.37-13.88-30.64-25.27-24.83c-25.49,18.38-48.69,39.55-66.02,67.87c0,0-46.5,47.6-51.45,49.18l0,0
			c-1.62,1.17-3.4,2.02-4.95,1.58c2.88-11.39,7.38-19.62,13.52-29.99c3.46-5.83,8.2-10.97,11.6-15.67c1.24-1.72,4.34-5.22,5.41-6.55
			c2.49-3.1,7.25-7.04,11.16-11.12c3.18-3.32,10.72-8.43,11.69-11.07c2.34-6.39-2.69-13.45-5.1-18.53
			c-2.98-6.31-4.47-12.03-10.24-14.79c-24.51,25.45-52.78,46.34-75.61,73.83c-3.57,4.03-3.25,2.07,4.55-8.58
			c0.21-0.29,1.64-2.1,1.96-2.46c1.34-1.49,3.08-3.47,4.79-5.64c4.18-5.27,9.87-10.17,13.51-14.87c7.88-10.17,5.84-19.78,0.18-29.16
			c-1.8-2.98-4.17-6.78-7.22-7.6c-9.66,11.16-20.92,21.76-31.93,31.92c-11.13,10.27-26.53,26.95-36.82,36.75
			c2.81-5.08,11.62-16.02,15.86-21.27c1.91-2.36,6.94-7.26,9.7-11.2c4.49-5.45,1.79-8.73,1.79-8.73l-6.62-11.2
			c-1.05-2.14-2.2-4.15-3.51-5.93c-1.65-2.25-3.54-4.14-5.8-5.45l-4.06,4.49c-0.01,0.02-0.01,0.03-0.02,0.05
			c-4.85,5.61-9.86,11.08-14.95,16.5l-75.19,83.11c-3.82,4.29-8.35,8.88-10.44,7.34c-2.2-2.87,9.49-19.02,11.13-21.73
			c1.79-2.97,3.7-5.69,5.72-8.39l22.04-24.85c2.46-2.44,4.39-4.94,4.86-7.63c0.89-5.16-1.96-9.35-4.45-14.23
			c-3.6-7.05-7.73-13.58-14.29-16.77l-9.13,11.45c-0.5-11.08-17.44-29.21-28.01-27.79c-2.55,0.34-10.43,4.41-13.38,6.66
			c-11.1,8.46-22.52,18.72-29.77,27.88c-0.63-0.82-2.91-1.04-3.68-0.36c-11.8,16.88-26.93,30.84-41.01,45.36
			c-14.05,14.48-40.77,44.67-44.44,42.37c-0.14-5.85,4.17-12.18,6.47-17.41c2.24-3.89,4.56-7.38,8.69-12.95
			c11.77-14.08,22.79-27.27,35.67-39.51c5.14-4.88,11.23-9.51,9.09-17.16c-2.16-7.73-8.5-18-15.35-22.18
			c-21.62,19.2-44.96,44.16-60.74,73.68c-5.36,10.03-12.27,22.6-12.83,33.77c-0.62,12.33,7.67,19.58,15.52,25.91
			c2.86,2.4,5.24,2.54,6.73,1.72c11.75-8.57,20.42-17.47,28.88-27.79l0,0.01l36.03-40.64c0,0,0,0.01,0,0.01
			c-4.71,7.15-7.66,14.42-9.49,20.98c-0.24,0.77-0.45,1.55-0.63,2.36c-0.03,0.15-0.07,0.3-0.1,0.45c-0.32,1.34-0.6,2.64-0.83,3.89
			c-1.17,5.68-2.2,12.2-1.21,17.73c0.93,5.21,4.01,9.55,8.03,13.18c0.02,0.01,12.34,10.44,21.39,0.69l0.16,0.02
			c15.08-16.91,31.71-33.38,45.5-49.56c-2.67,8.7-7.88,17.54-7.91,26.82c-0.03,11.92,9.1,18.02,18.71,22.24
			c10.18-0.81,20.29-12.64,28.9-25.12l38.98-46.82c-6.22,11.61-15.6,28.32-20.41,40.21c-2.1,5.18-2.81,5.61-2.58,9.12
			c0.42,6.38,14.05,14.89,21.17,16.91c19.73-27.54,33.22-52.58,58.2-73.75c-7.19,12.81-14.41,25.58-18.43,42.25
			c3.75,9.66,11.52,18.56,21.24,21.69c1.92-7.06,22.47-37,22.47-37c12.95-16.85,26.98-32.82,40.67-44.94c0,0-0.83,1.56-2.15,4.2
			c-5.59,11.27-19.9,42.27-15.51,56.56l-0.02,0.01c0.05,0.13,0.1,0.27,0.15,0.4c0.27,0.8,0.6,1.54,1,2.22
			c2.91,5.77,8.84,12.88,15.58,11.85c4.46-0.68,13.47-9.41,17.88-13.89l0,0l0,0c0.32-0.32,0.62-0.63,0.88-0.9
			c0.55-0.56,1.07-1.12,1.59-1.68l30.83-32.23c-5.44,15.95,1.46,26.88,9.09,34.4c3.1,3.05,8.27,8.57,12.95,8.69
			c6.03,0.15,12.9-7.94,17.04-11.61c5.81-5.14,20.84-19.73,29.34-28.98c14.28-16.92,29.06-33.25,45-48.15
			c-6.94,10.83-19.7,30.44-26.72,45.69c-2.53,5.5-6.81,13.58-6.89,16.31c-0.14,4.41,6.39,10.81,9.76,14.21
			c3.78,3.81,8.21,8.63,13.73,9.82c4.47,1.37,12.63-25.81,19.57-35.77c11.6-16.67,20.62-25.98,30.03-34.66l0,0.01l28.17-24.15
			c-11.94,20.17-24.56,42.98-28.25,72.86c4.18,7.68,9.34,14.56,18.39,18.23c18.1-12.48,32.81-32.21,47.53-46.85
			c-1.72,6.32-1.57,11.28-1.79,18.4c0.41,1.28,1.02,2.87,1.75,3.88c0.02,0.05,0.05,0.1,0.08,0.15c1.52,7.22,5.44,13.38,13.1,17.18
			c4.8,1.92,13.77-3.86,24.62-13.85c23.76-21.88,56.56-63.95,74.57-89.66c-0.39,1.23-0.78,2.46-1.16,3.69
			c-13.39,42.59-26.11,85.95-9.36,104.59c0,0,9.58,7.16,17.42,9.38c0,0,3.2-2.95,0-6.34c-3.2-3.39-3.42-12.6-1.49-24.7
			c1.93-12.1,14.9-62.9,35.22-99.92c20.32-37.02,48.73-85.55,80.87-112.32C1373.95,321.73,1386.95,317.3,1383.79,307.83z
			 M643.12,553.68c-6.53,7.04-12.47,15.02-20.49,19.76c6.44-26.7,31.04-51.53,51.45-70.87c7.01-6.64,16.71-17.26,27.64-16.95
			C684.15,509.67,663.36,531.87,643.12,553.68z M751.3,515.51l-0.06-0.02c0.04-0.03,0.08-0.07,0.13-0.1
			C751.34,515.43,751.32,515.47,751.3,515.51z M989.59,493.43c0.16,3.42,3.59,4.14,4.64,6.82c-6.9,9.59-15.77,17.37-24.2,25.24
			c-8.37,7.81-16.71,16.38-27.05,21.78c4.2-13.47,10.05-25.71,16.77-36.04c3.75-5.76,8.1-11.65,13.11-17.56
			c4.99-5.88,11.83-11.99,16.74-16.68c5.95-5.68,10.87-10.88,17.3-16.09c0.19-0.56,1.44-1.28,1.52-1.97
			c0.62,0.29,1.85,2.19,1.73,3.09C1001.34,470.18,992.52,479.86,989.59,493.43z"/>
	</g>
	<g>
		<path class="st0" d="M1664.85,563.45c-27.84,0-38.61-10.01-38.61-35.09c0-25.08,10.77-35.09,38.61-35.09h65.79
			c27.84,0,38.61,10.01,38.61,35.09c0,25.08-10.77,35.09-38.61,35.09H1664.85z M1727.78,550.1c17.74,0,24.6-6.1,24.6-21.74
			s-6.86-21.74-24.5-21.74h-60.17c-17.74,0-24.6,6.1-24.6,21.74s6.87,21.74,24.6,21.74H1727.78z"/>
		<path class="st0" d="M1584.68,518.63h-81.71c-7.25,0-11.54,0.96-15.06,3.34l2.38-13.92h93.52h7.07h17.06v-13.07h-131.39
			l-5.05,35.09l16.59,5.15c2.58-2.86,7.53-4.01,17.64-4.01h75.9c10.87,0,15.07,2.58,15.07,9.44s-4.1,9.44-14.69,9.44h-76.28
			c-13.06,0-18.11-2.67-17.73-9.73h-17.07c-0.38,16.5,8.48,23.08,31.94,23.08h82c20.78,0,28.89-6.48,28.89-22.7
			C1613.77,523.97,1605.66,518.63,1584.68,518.63z"/>
		<path class="st0" d="M1430.32,518.63h-81.71c-7.25,0-11.54,0.96-15.06,3.34l2.38-13.92h90.57h10.02h17.06v-13.07H1322.2
			l-5.05,35.09l16.59,5.15c2.58-2.86,7.53-4.01,17.64-4.01h75.9c10.87,0,15.07,2.58,15.07,9.44s-4.1,9.44-14.69,9.44h-76.28
			c-13.06,0-18.11-2.67-17.73-9.73h-17.07c-0.38,16.5,8.48,23.08,31.94,23.08h82c20.78,0,28.89-6.48,28.89-22.7
			C1459.41,523.97,1451.3,518.63,1430.32,518.63z"/>
	</g>
</g>
</svg>
