<?xml version="1.0" encoding="utf-8"?>
<!-- Generator: Adobe Illustrator 23.0.1, SVG Export Plug-In . SVG Version: 6.00 Build 0)  -->
<svg version="1.1" id="Warstwa_1" xmlns="http://www.w3.org/2000/svg" xmlns:xlink="http://www.w3.org/1999/xlink" x="0px" y="0px"
	 viewBox="0 0 367 148" style="enable-background:new 0 0 367 148;" xml:space="preserve">
<style type="text/css">
	.st0{fill:#1D1D1B;}
</style>
<g>
	<g>
		<path class="st0" d="M52.14,128.18H11.73v-18.4h21h19.41c7.67,0,11.59,3.11,11.59,9.2C63.73,125.07,59.81,128.18,52.14,128.18
			 M53.49,103.19H-0.06v6.59h4.13v18.41h-4.13v6.58l53.56-0.01c12.04,0,18.22-5.37,18.22-15.78
			C71.71,108.56,65.53,103.19,53.49,103.19"/>
		<path class="st0" d="M219.09,128.85h-28.41c-7.67,0-11.63-3.52-11.63-9.88c0-6.31,3.97-9.88,11.63-9.88h28.41
			c7.67,0,11.63,3.56,11.63,9.88C230.73,125.34,226.76,128.85,219.09,128.85 M220.44,102.38h-31.11c-12.04,0-18.26,5.82-18.26,16.6
			c0,10.82,6.22,16.59,18.26,16.59h31.11c12.04,0,18.27-5.77,18.27-16.59C238.71,108.2,232.48,102.38,220.44,102.38"/>
		<path class="st0" d="M261.25,123.08l13.26-13.8l13.44,13.8H261.25z M270.4,103.19l-29.85,31.57h9.42l5.1-5.32h39.1l5.23,5.32h9.38
			l-30.17-31.57H270.4z"/>
		<path class="st0" d="M152.07,128.58h-48.39v-6.99h48.39c2.39,0,3.61,1.22,3.61,3.52C155.68,127.37,154.46,128.58,152.07,128.58
			 M103.68,109.37h47.62c1.76,0,2.66,1.04,2.66,3.11c0,2.03-0.9,3.11-2.66,3.11h-47.62V109.37z M159.01,117.8
			c1.9-1.13,2.84-3.25,2.84-6.13c0-5.59-3.52-8.48-10.37-8.48l-53.66,0v0h-1.81v0.73v11.69H79.8v5.98h16.22v12.44v0.73h0.73h0.56
			h55.53c7.12,0,10.82-3.16,10.82-9.33C163.66,121.82,162.08,119.25,159.01,117.8"/>
		<polygon class="st0" points="299.42,103.13 299.42,113.41 307.09,113.41 307.09,109.49 328.28,109.49 328.28,129.06 
			324.46,129.06 324.46,134.76 339.79,134.76 339.79,129.06 335.95,129.06 335.95,109.49 359.4,109.49 359.4,113.42 367.06,113.41 
			367.06,103.13 		"/>
	</g>
	<path class="st0" d="M232.7,15.15l-49.16-3.84l-49.16,3.84l-8.07,21.38l21.36,16.2l29.02,22.01c0.67,0.58,3.22,2.61,6.77,2.67
		c0.03,0,0.06,0,0.08,0s0.06,0,0.08,0c3.55-0.06,6.1-2.09,6.77-2.67l29.02-22.01l21.36-16.2L232.7,15.15z M136.84,37.48l34.13-4.35
		c4.29-0.58,9.03-1.22,9.03-1.22l-5.81,2.4l-1,0.46l-23.34,12.56L136.84,37.48z M180.45,70.57L154.66,51l27.48-17.75L180.45,70.57z
		 M183.54,26.93l-49.27,5.51l4.64-12.3l44.63-3.97l44.63,3.97l4.64,12.3L183.54,26.93z M186.62,70.57l-1.68-37.32L212.42,51
		L186.62,70.57z M217.24,47.34L193.9,34.78l-1-0.46l-5.81-2.4c0,0,4.74,0.64,9.03,1.22l34.13,4.35L217.24,47.34z"/>
</g>
</svg>
