<svg xmlns="http://www.w3.org/2000/svg" viewBox="0 0 381.09 63.52"><defs><style>.cls-1{fill:#fff;}.cls-2{fill:#164194;}.cls-3{fill:#ffed00;}.cls-4{font-size:24px;font-family:Arial-BoldMT, Arial;font-weight:700;}.cls-4,.cls-8{fill:#1d1d1b;}.cls-5{letter-spacing:-0.01em;}.cls-6{letter-spacing:-0.01em;}.cls-7{letter-spacing:-0.01em;}.cls-8{font-size:15px;font-family:ArialMT, Arial;}</style></defs><title>Zasób 1</title><g id="Warstwa_2" data-name="Warstwa 2"><g id="Layer_1" data-name="Layer 1"><rect class="cls-1" width="93.52" height="63.52"/><rect class="cls-2" x="1.8" y="1.74" width="89.92" height="59.95"/><polygon class="cls-3" points="44.84 14.8 46.74 13.42 48.64 14.8 47.91 12.56 49.84 11.18 47.47 11.18 46.74 8.91 46.01 11.18 43.64 11.18 45.56 12.56 44.84 14.8"/><polygon class="cls-3" points="35.02 17.44 36.92 16.06 38.82 17.44 38.1 15.2 40.02 13.82 37.65 13.82 36.92 11.55 36.19 13.82 33.82 13.82 35.74 15.2 35.02 17.44"/><polygon class="cls-3" points="29.73 18.75 29.01 21.02 26.64 21.02 28.56 22.4 27.84 24.64 29.73 23.26 31.63 24.64 30.91 22.4 32.84 21.02 30.46 21.02 29.73 18.75"/><polygon class="cls-3" points="27.1 33.06 29 34.45 28.27 32.21 30.2 30.82 27.83 30.82 27.1 28.56 26.37 30.83 24 30.82 25.93 32.21 25.2 34.45 27.1 33.06"/><polygon class="cls-3" points="30.46 40.66 29.74 38.39 29.01 40.66 26.64 40.66 28.56 42.05 27.84 44.28 29.74 42.9 31.63 44.28 30.91 42.05 32.84 40.66 30.46 40.66"/><polygon class="cls-3" points="37.66 47.86 36.93 45.59 36.21 47.86 33.83 47.86 35.76 49.24 35.04 51.48 36.94 50.1 38.83 51.48 38.11 49.24 40.04 47.86 37.66 47.86"/><polygon class="cls-3" points="47.47 50.47 46.74 48.2 46.02 50.47 43.64 50.47 45.56 51.85 44.84 54.09 46.74 52.71 48.64 54.09 47.92 51.85 49.84 50.47 47.47 50.47"/><polygon class="cls-3" points="57.27 47.86 56.55 45.59 55.82 47.86 53.45 47.86 55.37 49.24 54.65 51.48 56.55 50.1 58.45 51.48 57.72 49.24 59.65 47.86 57.27 47.86"/><polygon class="cls-3" points="64.47 40.66 63.75 38.39 63.02 40.66 60.64 40.66 62.57 42.05 61.85 44.28 63.75 42.9 65.64 44.28 64.92 42.05 66.85 40.66 64.47 40.66"/><polygon class="cls-3" points="69.46 30.8 67.08 30.8 66.35 28.53 65.63 30.8 63.25 30.8 65.18 32.18 64.46 34.42 66.35 33.03 68.25 34.42 67.53 32.18 69.46 30.8"/><polygon class="cls-3" points="61.85 24.61 63.75 23.23 65.64 24.61 64.92 22.37 66.85 20.99 64.48 20.99 63.75 18.72 63.02 20.99 60.65 20.99 62.57 22.37 61.85 24.61"/><polygon class="cls-3" points="56.58 11.55 55.85 13.82 53.48 13.82 55.4 15.21 54.68 17.44 56.58 16.06 58.47 17.44 57.75 15.21 59.68 13.82 57.3 13.82 56.58 11.55"/><text class="cls-4" transform="translate(102.6 24.48)"><tspan class="cls-5">E</tspan><tspan class="cls-6" x="15.79" y="0">UR</tspan><tspan class="cls-7" x="49.98" y="0">OP</tspan><tspan class="cls-6" x="84.22" y="0">EAN UN</tspan><tspan class="cls-5" x="174.78" y="0">IO</tspan><tspan x="199.69" y="0">N</tspan></text><text class="cls-8" transform="translate(102.6 44.99)">European Structural and Investment Fund</text></g></g></svg>