<svg xmlns="http://www.w3.org/2000/svg" viewBox="0 0 939 940" width="939" height="940">
	<defs>
		<clipPath clipPathUnits="userSpaceOnUse" id="cp1">
			<path d="" />
		</clipPath>
	</defs>
	<style>
		tspan { white-space:pre }
		.shp0 { fill: #000000 } 
		.shp1 { fill: #ffffff } 
	</style>
	<path class="shp0" d="M469.5 940C209.87 940 0 730.13 0 470.5C0 210.87 209.87 1 469.5 1C729.13 1 939 210.87 939 470.5C939 730.13 729.13 940 469.5 940Z" />
	<path fill-rule="evenodd" class="shp1" d="M878.96 463.23L726.3 578.99L518.95 736.25C514.19 740.41 495.97 754.88 470.58 755.34L469.38 755.34C443.98 754.88 425.76 740.41 421.01 736.25L213.66 578.99L61 463.23L118.68 310.45L469.98 283L821.27 310.45L878.96 463.23ZM676.35 566.6L480.01 439.78L492.02 706.47L676.35 566.6ZM822.05 433.94L788.9 346.06L469.98 317.71L151.07 346.06L117.9 433.94L469.98 394.59L822.05 433.94ZM459.95 439.78L263.61 566.6L447.94 706.47L459.95 439.78ZM229.19 540.49L395.95 450.71L403.11 447.41L444.65 430.24C444.65 430.24 410.8 434.82 380.14 438.93L136.29 470L229.19 540.49ZM803.67 470L559.81 438.93C529.16 434.82 495.31 430.24 495.31 430.24L536.85 447.41L544.01 450.71L710.77 540.49L803.67 470Z" />
	<g clip-path="url(#cp1)">
		<g >
			<g >
			</g>
		</g>
	</g>
</svg>