<svg xmlns="http://www.w3.org/2000/svg" viewBox="0 0 1273 1920" width="30" height="50">
	<defs>
		<clipPath clipPathUnits="userSpaceOnUse" id="cp1">
			<path d="" />
		</clipPath>
	</defs>
	<style>
		tspan { white-space:pre }
		.shp0 { fill: #000000 } 
		.shp1 { fill: #ffffff } 
	</style>
	<path id="Layer" class="shp0" d="M653.54 143.43C360.9 143.43 123.67 380.66 123.67 673.3C123.67 790.18 161.54 898.19 225.64 985.81L653.54 1676.04L1081.44 985.81C1145.54 898.19 1183.41 790.18 1183.41 673.3C1183.41 380.66 946.18 143.43 653.54 143.43L653.54 143.43Z" />
	<path id="Path 1" fill-rule="evenodd" class="shp1" d="M1059.96 640.23L907.3 755.99L699.95 913.25C695.19 917.41 676.97 931.88 651.58 932.34L650.38 932.34C624.98 931.88 606.76 917.41 602.01 913.25L394.66 755.99L242 640.23L299.68 487.45L650.98 460L1002.27 487.45L1059.96 640.23ZM857.35 743.6L661.01 616.78L673.02 883.47L857.35 743.6ZM1003.05 610.94L969.9 523.06L650.98 494.71L332.07 523.06L298.9 610.94L650.98 571.59L1003.05 610.94ZM640.95 616.78L444.61 743.6L628.94 883.47L640.95 616.78ZM410.19 717.49L576.95 627.71L584.11 624.41L625.65 607.24C625.65 607.24 591.8 611.82 561.14 615.93L317.29 647L410.19 717.49ZM984.67 647L740.81 615.93C710.16 611.82 676.31 607.24 676.31 607.24L717.85 624.41L725.01 627.71L891.77 717.49L984.67 647Z" />
	<g id="Clip-Path" clip-path="url(#cp1)">
		<g id="Layer">
		</g>
	</g>
</svg>